<svg width="152" height="30" viewBox="0 0 152 30" fill="none" xmlns="http://www.w3.org/2000/svg">
<path fill-rule="evenodd" clip-rule="evenodd" d="M12.7527 0C19.8461 0 25.5053 5.95158 25.5053 13.1788C25.5053 20.4061 19.8461 26.3576 12.7527 26.3576C10.7059 26.3576 8.76939 25.8583 7.05435 24.9719C6.93035 24.9078 6.84681 24.9154 6.81392 24.9245L4.29885 25.6228C2.02581 26.254 0.158579 24.1039 0.70307 21.9921L1.37601 19.3822C1.39605 19.3045 1.39389 19.1779 1.32214 19.0284C0.474731 17.2629 0 15.2754 0 13.1788C0 5.95158 5.65929 0 12.7527 0ZM22.5968 13.1788C22.5968 7.45546 18.1392 2.9085 12.7527 2.9085C7.36617 2.9085 2.9085 7.45546 2.9085 13.1788C2.9085 14.8333 3.28254 16.3913 3.94425 17.7699C4.27354 18.4559 4.40487 19.2844 4.1924 20.1084L3.51946 22.7183C3.51483 22.7363 3.51397 22.749 3.51406 22.7573C3.51415 22.7658 3.51531 22.7732 3.51715 22.7799C3.52088 22.7933 3.52809 22.8061 3.53687 22.8159L6.0358 22.122C6.87187 21.8899 7.70864 22.036 8.38982 22.3881C9.70465 23.0677 11.1846 23.4491 12.7527 23.4491C18.1392 23.4491 22.5968 18.9022 22.5968 13.1788ZM31.9103 22.8598C32.8565 23.2476 33.9269 23.4415 35.1213 23.4415C36.3467 23.4415 37.4093 23.2166 38.309 22.7668C39.2087 22.3169 39.8912 21.7119 40.3566 20.9519C40.8375 20.1918 41.0779 19.3464 41.0779 18.4156C41.0779 17.4384 40.8375 16.6395 40.3566 16.019C39.8757 15.3986 39.3018 14.9254 38.6348 14.5997C37.9833 14.2739 37.1301 13.9327 36.0753 13.5759C35.0205 13.2346 34.2449 12.9166 33.7485 12.6219C33.2521 12.3272 33.0039 11.9161 33.0039 11.3887C33.0039 10.9078 33.1513 10.5433 33.446 10.2951C33.7407 10.0314 34.1285 9.89954 34.6094 9.89954C35.1678 9.89954 35.6254 10.0547 35.9822 10.3649C36.339 10.6596 36.5329 11.0707 36.5639 11.5981H40.8685C40.7909 10.0624 40.2015 8.86799 39.1001 8.01483C37.9988 7.14616 36.5484 6.71182 34.749 6.71182C32.9806 6.71182 31.5458 7.14616 30.4444 8.01483C29.3431 8.86799 28.7924 10.0547 28.7924 11.5748C28.7924 12.5986 29.0328 13.4285 29.5137 14.0645C29.9946 14.7005 30.5685 15.1814 31.2355 15.5071C31.9025 15.8329 32.7635 16.1586 33.8183 16.4844C34.5473 16.7016 35.1058 16.8955 35.4936 17.0661C35.8969 17.2367 36.2304 17.4539 36.4941 17.7176C36.7733 17.9813 36.9129 18.3148 36.9129 18.7181C36.9129 19.199 36.7423 19.579 36.401 19.8583C36.0598 20.122 35.5944 20.2538 35.005 20.2538C34.431 20.2538 33.9656 20.0987 33.6089 19.7885C33.2521 19.4627 33.0427 18.9973 32.9806 18.3924H28.7459C28.7769 19.4627 29.0716 20.3779 29.63 21.138C30.204 21.8981 30.9641 22.472 31.9103 22.8598ZM63.6902 11.6214C62.7439 10.6441 61.4642 10.1555 59.851 10.1555C58.9357 10.1555 58.0903 10.3804 57.3147 10.8303C56.5391 11.2801 55.9264 11.8618 55.4766 12.5754C55.0422 11.7998 54.4373 11.2026 53.6617 10.7837C52.9016 10.3649 52.0329 10.1555 51.0556 10.1555C50.2335 10.1555 49.4967 10.3184 48.8452 10.6441C48.1937 10.9544 47.6663 11.3809 47.263 11.9239V10.2951H43.2841V23.2787H47.263V16.2284C47.263 15.3908 47.4801 14.747 47.9145 14.2972C48.3643 13.8318 48.977 13.5992 49.7526 13.5992C50.5282 13.5992 51.1332 13.8318 51.5675 14.2972C52.0174 14.747 52.2423 15.3908 52.2423 16.2284V23.2787H56.1979V16.2284C56.1979 15.3908 56.415 14.747 56.8494 14.2972C57.2992 13.8318 57.912 13.5992 58.6876 13.5992C59.4632 13.5992 60.0681 13.8318 60.5025 14.2972C60.9523 14.747 61.1772 15.3908 61.1772 16.2284V23.2787H65.1328V15.6933C65.1328 13.9559 64.6519 12.5986 63.6902 11.6214ZM67.6266 13.2501C67.1302 14.2584 66.882 15.4296 66.882 16.7636C66.882 18.0976 67.1302 19.2766 67.6266 20.3003C68.1385 21.3086 68.8288 22.092 69.6974 22.6504C70.5661 23.1933 71.5279 23.4648 72.5827 23.4648C73.4979 23.4648 74.2968 23.2787 74.9793 22.9064C75.6773 22.5341 76.2203 22.0455 76.6081 21.4405V23.2787H80.5869V10.2951H76.6081V12.1333C76.2358 11.5283 75.7006 11.0397 75.0026 10.6674C74.32 10.2951 73.5212 10.109 72.606 10.109C71.5356 10.109 70.5661 10.3804 69.6974 10.9233C68.8288 11.4663 68.1385 12.2419 67.6266 13.2501ZM75.7704 14.4368C76.3288 15.0108 76.6081 15.7941 76.6081 16.7869C76.6081 17.7796 76.3288 18.563 75.7704 19.1369C75.2275 19.7109 74.5605 19.9979 73.7694 19.9979C72.9782 19.9979 72.3035 19.7109 71.745 19.1369C71.2021 18.5475 70.9307 17.7564 70.9307 16.7636C70.9307 15.7708 71.2021 14.9952 71.745 14.4368C72.3035 13.8629 72.9782 13.5759 73.7694 13.5759C74.5605 13.5759 75.2275 13.8629 75.7704 14.4368ZM88.947 10.7837C88.2489 11.187 87.6672 11.7455 87.2019 12.459V10.2951H83.223V23.2787H87.2019V17.2522C87.2019 16.1819 87.45 15.4373 87.9464 15.0185C88.4428 14.5842 89.1874 14.367 90.1802 14.367H91.2738V10.1555C90.4206 10.1555 89.645 10.3649 88.947 10.7837ZM100.17 23.2787V19.9048H98.7502C98.3158 19.9048 98.0056 19.8195 97.8195 19.6488C97.6333 19.4782 97.5402 19.199 97.5402 18.8112V13.5992H100.146V10.2951H97.5402V7.13065H93.5614V10.2951H91.9792V13.5992H93.5614V18.7647C93.5614 20.3624 93.9647 21.518 94.7714 22.2316C95.578 22.9296 96.7026 23.2787 98.1452 23.2787H100.17ZM113.708 11.6446C112.808 10.6519 111.614 10.1555 110.124 10.1555C109.256 10.1555 108.472 10.3261 107.774 10.6674C107.076 11.0086 106.526 11.4663 106.122 12.0402V6.06032H102.143V23.2787H106.122V16.2284C106.122 15.3598 106.347 14.685 106.797 14.2041C107.247 13.7233 107.852 13.4828 108.612 13.4828C109.372 13.4828 109.977 13.7233 110.427 14.2041C110.877 14.685 111.102 15.3598 111.102 16.2284V23.2787H115.057V15.6933C115.057 13.9714 114.607 12.6219 113.708 11.6446ZM129.749 17.7409C129.795 17.3376 129.819 16.9498 129.819 16.5775C129.819 15.2745 129.539 14.1343 128.981 13.1571C128.438 12.1798 127.678 11.4275 126.701 10.9001C125.724 10.3727 124.607 10.109 123.35 10.109C122.063 10.109 120.923 10.3804 119.93 10.9233C118.937 11.4663 118.161 12.2419 117.603 13.2501C117.06 14.2584 116.789 15.4373 116.789 16.7869C116.789 18.1364 117.068 19.3153 117.626 20.3236C118.185 21.3319 118.96 22.1075 119.953 22.6504C120.946 23.1933 122.078 23.4648 123.35 23.4648C124.405 23.4648 125.359 23.2709 126.212 22.8831C127.065 22.4953 127.771 21.9601 128.33 21.2776C128.903 20.5951 129.299 19.8272 129.516 18.9741H125.281C124.894 19.8117 124.203 20.2305 123.211 20.2305C122.544 20.2305 121.977 20.0211 121.512 19.6023C121.062 19.168 120.806 18.5475 120.744 17.7409H129.749ZM125.049 13.9016C125.514 14.305 125.747 14.8479 125.747 15.5304H120.767C120.876 14.8169 121.155 14.2662 121.605 13.8784C122.07 13.4906 122.637 13.2967 123.304 13.2967C124.002 13.2967 124.583 13.4983 125.049 13.9016ZM135.654 23.2787V6.06032H131.675V23.2787H135.654ZM143.88 10.6674C143.197 11.0397 142.662 11.5283 142.274 12.1333V10.2951H138.295V29.4679H142.274V21.4637C142.662 22.0532 143.197 22.5341 143.88 22.9064C144.578 23.2787 145.376 23.4648 146.276 23.4648C147.346 23.4648 148.316 23.1933 149.185 22.6504C150.053 22.092 150.736 21.3086 151.232 20.3003C151.744 19.2766 152 18.0976 152 16.7636C152 15.4296 151.744 14.2584 151.232 13.2501C150.736 12.2419 150.053 11.4663 149.185 10.9233C148.316 10.3804 147.346 10.109 146.276 10.109C145.361 10.109 144.562 10.2951 143.88 10.6674ZM147.114 14.4368C147.672 14.9952 147.951 15.7708 147.951 16.7636C147.951 17.7564 147.672 18.5475 147.114 19.1369C146.555 19.7109 145.881 19.9979 145.089 19.9979C144.298 19.9979 143.624 19.7109 143.065 19.1369C142.522 18.563 142.251 17.7796 142.251 16.7869C142.251 15.7941 142.522 15.0108 143.065 14.4368C143.624 13.8629 144.298 13.5759 145.089 13.5759C145.896 13.5759 146.571 13.8629 147.114 14.4368Z" fill="#421C86"/>
</svg>
