<svg width="270" height="71" viewBox="0 0 270 71" fill="none" xmlns="http://www.w3.org/2000/svg">
<path d="M98.8493 32.3232C98.8493 14.517 76.7214 0 49.4246 0C22.1279 0 0.00712118 14.517 0.00712118 32.3232C0.00712118 32.786 0 34.0533 0 34.2171C0 53.1126 19.337 68.4128 49.4175 68.4128C79.6832 68.4128 98.8493 53.1126 98.8493 34.2242C98.8493 33.562 98.8493 33.1776 98.8493 32.3232Z" fill="#283480"/>
<path d="M96.9555 32.309C96.9555 49.0972 75.6819 62.7099 49.4318 62.7099C23.1887 62.7099 1.90808 49.0972 1.90808 32.309C1.90808 15.5209 23.1816 1.90808 49.4318 1.90808C75.6748 1.90808 96.9555 15.5209 96.9555 32.309Z" fill="#009FE3"/>
<path d="M33.6545 22.7188C33.6261 22.7686 33.1562 23.2599 33.4623 23.6515C34.2099 24.6126 36.5309 25.1608 38.8732 24.634C40.2687 24.3207 42.0557 22.8968 43.7858 21.5227C45.6654 20.0347 47.5236 18.5395 49.3961 17.9415C51.3754 17.3078 52.6498 17.5784 53.4899 17.8347C54.4083 18.1124 55.4905 18.7175 57.2206 20.0133C60.4743 22.4554 73.546 33.8682 75.8029 35.8403C77.6255 35.0215 85.7063 31.54 96.6991 29.1122C95.745 23.2528 92.1781 17.8917 86.7743 13.506C79.2417 16.6671 70.036 18.3188 61.0367 13.926C60.994 13.9047 56.117 11.605 51.3113 11.7118C44.1703 11.8756 41.0732 14.9655 37.7982 18.2405L33.6545 22.7188Z" fill="white"/>
<path d="M75.2688 37.0863C75.1193 36.9511 59.8975 23.6302 56.4445 21.0386C54.451 19.5435 53.3403 19.1591 52.1727 19.0095C51.5675 18.9312 50.7274 19.0451 50.1436 19.2018C48.5417 19.6361 46.4414 21.0386 44.5831 22.5195C42.6537 24.0574 40.8382 25.5027 39.1508 25.88C36.9936 26.3641 34.3664 25.7946 33.1632 24.9829C32.6791 24.6554 32.3373 24.2781 32.1665 23.8936C31.725 22.8684 32.5438 22.0425 32.672 21.9072L36.8726 17.3649C37.3638 16.8808 37.8551 16.3895 38.3534 15.9125C37.0007 16.0905 35.7477 16.4322 34.5231 16.774C32.9995 17.2012 31.5399 17.607 30.059 17.607C29.4396 17.607 26.129 17.0659 25.5025 16.895C21.7006 15.8555 18.3686 14.8445 13.3848 12.5164C7.41143 16.9591 3.4173 22.5195 2.26392 28.6424C3.12539 28.8703 4.50661 29.2832 5.0833 29.4114C18.5964 32.4159 22.8041 35.5129 23.5659 36.1537C24.3918 35.2352 25.5808 34.6514 26.9193 34.6514C28.4144 34.6514 29.76 35.4061 30.5788 36.5666C31.3548 35.9543 32.4228 35.4346 33.7969 35.4346C34.4234 35.4346 35.0713 35.5485 35.7263 35.7763C37.2499 36.2961 38.0402 37.3142 38.446 38.2326C38.9586 38.0048 39.5851 37.8339 40.3256 37.8339C41.0518 37.8339 41.8065 37.9977 42.5754 38.3323C45.0673 39.4002 45.4517 41.8494 45.231 43.6934C45.409 43.672 45.587 43.6649 45.765 43.6649C48.7197 43.6649 51.119 46.0714 51.119 49.026C51.119 49.9373 50.884 50.7988 50.4782 51.5535C51.2827 52.002 53.3332 53.0273 55.1273 52.7994C56.5655 52.6214 57.1137 52.1302 57.306 51.8525C57.4412 51.6603 57.5836 51.4396 57.4484 51.2829L53.6322 47.0467C53.6322 47.0467 53.0057 46.4558 53.2122 46.2209C53.4258 45.9859 53.8173 46.3205 54.0879 46.5555C56.0315 48.1788 58.3953 50.6208 58.3953 50.6208C58.438 50.6493 58.5946 50.9554 59.4703 51.1121C60.225 51.2473 61.5564 51.169 62.482 50.4072C62.7169 50.215 62.9518 49.9729 63.1441 49.7309C63.1298 49.7451 63.1156 49.7593 63.1014 49.7664C64.0768 48.5205 62.9946 47.2532 62.9946 47.2532L58.5448 42.2552C58.5448 42.2552 57.9111 41.6643 58.1247 41.4293C58.317 41.2229 58.7299 41.5361 59.0076 41.764C60.4173 42.9458 62.4108 44.9393 64.3188 46.8118C64.689 47.0823 66.3693 48.1218 68.5906 46.6623C69.9362 45.7794 70.2068 44.6901 70.1712 43.8714C70.0786 42.7892 69.2314 42.0131 69.2314 42.0131L63.1512 35.8974C63.1512 35.8974 62.5104 35.3491 62.7383 35.0715C62.9234 34.8365 63.3434 35.1712 63.614 35.4061C65.5505 37.0294 70.7977 41.8352 70.7977 41.8352C70.8689 41.885 72.6844 43.1808 74.92 41.7497C75.7174 41.2371 76.23 40.4682 76.2727 39.5711C76.3653 38.0119 75.2688 37.0863 75.2688 37.0863Z" fill="white"/>
<path d="M45.7796 44.8327C44.8398 44.8184 43.8074 45.3809 43.6722 45.3026C43.601 45.2527 43.7291 44.8754 43.8217 44.6547C43.9142 44.4411 45.153 40.7033 42.1272 39.4075C39.8133 38.4107 38.3965 39.5285 37.9124 40.034C37.7842 40.1693 37.7272 40.155 37.713 39.9842C37.6632 39.3149 37.3641 37.4923 35.3635 36.88C32.5085 36.0043 30.6717 37.9978 30.2018 38.7169C29.9953 37.0865 28.6141 35.8263 26.9339 35.8263C25.1041 35.8263 23.6161 37.3072 23.6161 39.1369C23.6161 40.9667 25.097 42.4547 26.9339 42.4547C27.8238 42.4547 28.6283 42.0987 29.2264 41.5291C29.2477 41.5434 29.2549 41.579 29.2406 41.643C29.0982 42.4618 28.8419 45.4449 31.9674 46.6553C33.2205 47.1394 34.2813 46.7763 35.1642 46.164C35.4276 45.9789 35.4703 46.0572 35.4347 46.3064C35.3208 47.0753 35.4632 48.7129 37.7628 49.6455C39.5143 50.3575 40.5466 49.6313 41.2301 49.0048C41.5291 48.7342 41.6075 48.7769 41.6217 49.197C41.7071 51.4183 43.5511 53.1769 45.7867 53.1769C48.0935 53.1769 49.9588 51.3115 49.9588 49.0119C49.9517 46.7051 48.0792 44.8611 45.7796 44.8327Z" fill="white"/>
<path d="M75.8599 35.4914C71.1751 31.3976 60.339 21.9783 57.3986 19.7783C55.7255 18.5182 54.5792 17.8489 53.5753 17.5499C53.1268 17.4146 52.5003 17.258 51.6958 17.258C50.9482 17.258 50.1508 17.3933 49.3107 17.6567C47.4168 18.2547 45.523 19.757 43.7004 21.2094L43.6078 21.2806C41.9062 22.6333 40.1477 24.0359 38.8163 24.3349C38.2325 24.4631 37.6344 24.5343 37.0435 24.5343C35.5555 24.5343 34.2099 24.1 33.7115 23.4592C33.6261 23.3524 33.683 23.1815 33.8753 22.9323L33.9037 22.8967L38.026 18.4541C41.2583 15.2218 44.3056 12.1745 51.3327 12.0108C51.4466 12.0108 51.5676 12.0037 51.6815 12.0037C56.053 12.0037 60.4245 13.9616 60.9157 14.1894C65.0166 16.19 69.2457 17.2081 73.4961 17.2081C77.9317 17.2081 82.5025 16.1117 87.3083 13.8975C86.7743 13.449 86.2118 13.0075 85.6352 12.5732C81.4132 14.403 77.3835 15.3286 73.5033 15.3286C69.5376 15.3286 65.572 14.3745 61.7274 12.4949C61.5209 12.3953 56.7009 10.1241 51.6744 10.1241C51.5462 10.1241 51.411 10.1241 51.2757 10.1312C45.3735 10.2665 42.0557 12.3668 39.8202 14.1965C37.6487 14.2464 35.7691 14.7732 34.1031 15.236C32.6151 15.6489 31.3264 16.012 30.0734 16.0049C29.5536 16.0049 28.6281 15.9551 28.5426 15.9551C27.0974 15.9124 19.8353 14.1324 14.0541 11.9396C13.4632 12.3597 12.8936 12.7868 12.3454 13.2283C18.3829 15.7059 25.7304 17.6211 28.0514 17.7706C28.6993 17.8133 29.3828 17.8845 30.0734 17.8845C31.6041 17.8845 33.1348 17.4573 34.6228 17.0373C35.4985 16.7881 36.4597 16.5247 37.4778 16.3324C37.2073 16.5959 36.9367 16.8664 36.6662 17.1369L32.4727 21.6722C32.1452 22.0068 31.4261 22.8967 31.896 23.986C32.0811 24.4275 32.4656 24.8475 32.9995 25.2106C33.9963 25.8799 35.7833 26.3355 37.4493 26.3355C38.0759 26.3355 38.6739 26.2715 39.2221 26.1504C40.9807 25.7588 42.8175 24.2851 44.7755 22.7401C46.3275 21.5013 48.5418 19.935 50.2291 19.4722C50.699 19.344 51.2828 19.2657 51.7456 19.2657C51.888 19.2657 52.0161 19.2728 52.1372 19.2871C53.255 19.4295 54.3371 19.8068 56.2666 21.2592C59.7054 23.8437 74.9272 37.1574 75.0767 37.2927C75.0838 37.2998 76.0592 38.1399 75.988 39.5283C75.9524 40.3043 75.5181 40.9949 74.7706 41.4719C74.1227 41.8849 73.4534 42.0913 72.7699 42.0913C71.7518 42.0913 71.0541 41.6143 71.0043 41.5787C70.9473 41.536 65.7357 36.7516 63.8134 35.1425C63.5073 34.8862 63.2082 34.6584 62.9092 34.6584C62.7455 34.6584 62.6102 34.7225 62.5105 34.8435C62.2115 35.2137 62.5461 35.7335 62.9448 36.0681L69.0392 42.191C69.0463 42.1981 69.801 42.903 69.8794 43.8428C69.9292 44.8609 69.4451 45.7081 68.4341 46.3702C67.715 46.8473 66.9888 47.0822 66.2768 47.0822C65.3441 47.0822 64.682 46.655 64.5396 46.5554L63.6639 45.6939C62.0691 44.1204 60.4173 42.4972 59.2141 41.4933C58.9222 41.2512 58.6018 41.0234 58.3028 41.0234C58.1533 41.0234 58.018 41.0803 57.9183 41.1871C57.7831 41.3366 57.6834 41.6143 58.0251 42.07C58.1675 42.2551 58.3313 42.4117 58.3313 42.4117L62.7739 47.4026C62.8095 47.4453 63.6924 48.4919 62.8736 49.5314L62.717 49.7307C62.5817 49.8802 62.4393 50.0155 62.304 50.1294C61.5422 50.7488 60.5312 50.82 60.1325 50.82C59.919 50.82 59.7125 50.7987 59.5345 50.7702C59.0931 50.6919 58.8012 50.5708 58.6588 50.4L58.6018 50.343C58.3597 50.0938 56.1171 47.8013 54.2659 46.2563C54.0239 46.0499 53.7177 45.7936 53.4045 45.7936C53.2478 45.7936 53.1126 45.8576 53.0058 45.9715C52.6356 46.3702 53.1909 46.9754 53.4258 47.1961L57.2206 51.3754C57.2135 51.411 57.1708 51.4964 57.0782 51.6317C56.9429 51.8168 56.4802 52.2796 55.1061 52.4504C54.9423 52.4718 54.7714 52.4789 54.6006 52.4789C53.1838 52.4789 51.6673 51.7883 50.8912 51.3754C51.2472 50.6278 51.4323 49.8019 51.4323 48.9689C51.4323 45.8505 48.8977 43.3088 45.7793 43.3088C45.7152 43.3088 45.6441 43.3088 45.5729 43.3159C45.6725 41.892 45.4732 39.1936 42.7036 38.0046C41.9062 37.6629 41.1088 37.4849 40.3399 37.4849C39.7347 37.4849 39.1509 37.5917 38.6098 37.7982C38.0331 36.6804 37.0862 35.8688 35.8403 35.4487C35.1568 35.2137 34.4733 35.0927 33.8112 35.0927C32.6578 35.0927 31.597 35.4345 30.6501 36.1037C29.7459 34.9717 28.3718 34.3095 26.9265 34.3095C25.6663 34.3095 24.4488 34.815 23.5518 35.705C22.3699 34.8008 17.6923 31.8319 5.16169 28.984C4.55652 28.8488 3.16107 28.4501 2.30671 28.2009C2.16432 28.8773 2.05752 29.5679 1.98633 30.2585C1.98633 30.2585 4.30022 30.8138 4.74875 30.9135C17.5499 33.7542 21.779 36.716 22.4909 37.2713C22.2489 37.8551 22.1207 38.4817 22.1207 39.1153C22.1207 41.7567 24.2708 43.914 26.9194 43.914C27.2184 43.914 27.5103 43.8855 27.8022 43.8356C28.2009 45.7793 29.4753 47.2602 31.419 48.0149C31.9886 48.2356 32.5652 48.3424 33.1277 48.3424C33.4908 48.3424 33.861 48.2997 34.217 48.2071C34.573 49.1184 35.3846 50.2576 37.193 50.9909C37.8267 51.2472 38.4603 51.3825 39.0797 51.3825C39.5852 51.3825 40.0765 51.297 40.5464 51.119C41.415 53.2265 43.4726 54.629 45.7722 54.629C47.2958 54.629 48.7553 54.0096 49.8233 52.9132C50.7346 53.4187 52.664 54.3371 54.6148 54.3443C54.864 54.3443 55.1061 54.3229 55.341 54.3015C57.2776 54.0595 58.1746 53.2977 58.5876 52.7139C58.6588 52.6142 58.73 52.5003 58.7869 52.3863C59.2426 52.5145 59.7481 52.6213 60.3177 52.6284C61.3714 52.6284 62.3895 52.2653 63.4147 51.5249C64.4186 50.7987 65.1377 49.7592 65.2373 48.8692C65.2373 48.855 65.2445 48.8408 65.2445 48.8336C65.5862 48.9048 65.9351 48.9404 66.2768 48.9404C67.3661 48.9404 68.4341 48.5987 69.4593 47.9294C71.4314 46.6337 71.7732 44.9463 71.7447 43.8428C72.0864 43.914 72.4424 43.9496 72.7913 43.9496C73.8094 43.9496 74.8133 43.6434 75.7673 43.0311C76.9919 42.248 77.7252 41.0519 77.8391 39.6635C77.9174 38.7166 77.6825 37.7626 77.1841 36.9438C80.4876 35.5199 88.0416 32.7646 96.9269 30.764C96.87 30.0734 96.7774 29.397 96.6493 28.7135C85.8986 31.1199 77.8676 34.5943 75.8599 35.4914ZM45.7793 52.8776C43.6933 52.8776 41.9917 51.2543 41.9134 49.1825C41.9062 49.0045 41.892 48.5346 41.4933 48.5346C41.3295 48.5346 41.1871 48.6343 41.0234 48.7838C40.5677 49.211 39.9768 49.6453 39.1224 49.6453C38.738 49.6453 38.3179 49.5527 37.8694 49.3747C35.6623 48.4848 35.6338 46.9683 35.7192 46.356C35.7406 46.1923 35.7548 46.0214 35.6409 45.8932L35.5057 45.7722H35.3704C35.2565 45.7722 35.1426 45.8149 34.9859 45.9288C34.3452 46.3774 33.7329 46.5981 33.1135 46.5981C32.7717 46.5981 32.4229 46.5269 32.0669 46.3916C29.162 45.2596 29.3899 42.5185 29.5323 41.6926C29.5536 41.5289 29.5109 41.3936 29.4041 41.3082L29.1976 41.1373L29.0054 41.3224C28.4358 41.8706 27.7025 42.1696 26.9194 42.1696C25.2534 42.1696 23.9006 40.8169 23.9006 39.1509C23.9006 37.4849 25.2605 36.1322 26.9194 36.1393C28.4216 36.1393 29.7031 37.2713 29.8954 38.7736L30.0022 39.5852L30.4436 38.9017C30.4934 38.8234 31.7109 36.9794 33.9536 36.9794C34.3808 36.9794 34.8222 37.0506 35.2636 37.1859C37.0506 37.7341 37.3497 39.3503 37.3995 40.0266C37.4351 40.4182 37.7128 40.4396 37.7626 40.4396C37.9192 40.4396 38.0331 40.3399 38.1115 40.2545C38.4461 39.9056 39.1794 39.3147 40.3328 39.3147C40.8596 39.3147 41.415 39.4428 41.9988 39.692C44.8395 40.9095 43.5509 44.5191 43.5366 44.5547C43.2946 45.1528 43.2803 45.4162 43.5153 45.5657L43.6292 45.6227H43.7146C43.8428 45.6227 43.9994 45.5657 44.2628 45.4803C44.6473 45.345 45.2311 45.1457 45.7793 45.1457C47.9152 45.167 49.6524 46.9113 49.6524 49.0188C49.6524 51.1475 47.9152 52.8776 45.7793 52.8776Z" fill="#283480"/>
<path d="M267.251 11.7262C265.471 9.49065 262.758 8.37286 259.127 8.37286C255.496 8.37286 252.791 9.49065 251.004 11.7262C249.217 13.9618 248.327 16.6032 248.327 19.6504C248.327 22.7546 249.217 25.4031 251.004 27.6102C252.784 29.8101 255.496 30.9137 259.127 30.9137C262.758 30.9137 265.471 29.8101 267.251 27.6102C269.038 25.4031 269.928 22.7546 269.928 19.6504C269.928 16.6032 269.038 13.9618 267.251 11.7262ZM262.829 24.5487C261.961 25.695 260.722 26.2717 259.106 26.2717C257.49 26.2717 256.244 25.695 255.375 24.5487C254.499 23.4025 254.065 21.7649 254.065 19.6504C254.065 17.5359 254.499 15.9055 255.375 14.7592C256.251 13.62 257.49 13.0434 259.106 13.0434C260.722 13.0434 261.961 13.6129 262.829 14.7592C263.691 15.8983 264.125 17.5287 264.125 19.6504C264.132 21.7649 263.698 23.4025 262.829 24.5487Z" fill="#283480"/>
<path d="M221.663 9.86071C219.854 8.94227 217.783 8.47949 215.454 8.47949C211.873 8.47949 209.346 9.41217 207.872 11.2775C206.946 12.4736 206.427 13.9972 206.306 15.8483H211.66C211.788 15.0296 212.051 14.3817 212.45 13.9047C213.005 13.2568 213.938 12.9293 215.269 12.9293C216.458 12.9293 217.348 13.093 217.968 13.4277C218.58 13.7552 218.886 14.3603 218.886 15.2218C218.886 15.9338 218.487 16.4606 217.69 16.7952C217.249 16.9875 216.508 17.1512 215.476 17.2794L213.582 17.5143C211.425 17.7849 209.794 18.2405 208.684 18.8813C206.655 20.0489 205.644 21.9356 205.644 24.5414C205.644 26.5492 206.27 28.1013 207.53 29.1977C208.783 30.2941 210.385 30.7498 212.315 30.8423C224.418 31.3834 224.276 24.4631 224.39 23.0249V15.0652C224.375 12.5235 223.471 10.7791 221.663 9.86071ZM218.851 21.9428C218.815 23.7939 218.281 25.0754 217.263 25.7731C216.245 26.4709 215.127 26.8268 213.917 26.8268C213.148 26.8268 212.5 26.6133 211.966 26.1932C211.432 25.7731 211.168 25.0896 211.168 24.1427C211.168 23.0819 211.603 22.2987 212.478 21.7933C212.998 21.4942 213.845 21.2379 215.027 21.0386L216.295 20.8036C216.921 20.6826 217.419 20.5544 217.783 20.4192C218.146 20.2839 218.502 20.113 218.858 19.8852V21.9428H218.851Z" fill="#283480"/>
<path d="M194.067 13.2213C195.449 13.2213 196.467 13.6485 197.122 14.5029C197.57 15.1365 197.855 15.8485 197.962 16.6388H203.928C203.601 13.6271 202.547 11.5268 200.767 10.3307C198.98 9.14175 196.695 8.5437 193.904 8.5437C190.614 8.5437 188.03 9.55469 186.172 11.5696C184.299 13.5915 183.367 16.4109 183.367 20.0348C183.367 23.2458 184.214 25.8658 185.901 27.8807C187.596 29.8955 190.23 30.9065 193.818 30.9065C197.407 30.9065 200.119 29.6962 201.942 27.2826C203.088 25.7875 203.729 24.1927 203.864 22.5125H197.912C197.791 23.6231 197.442 24.5273 196.865 25.2322C196.289 25.9299 195.328 26.2788 193.953 26.2788C192.024 26.2788 190.714 25.403 190.016 23.6374C189.632 22.6976 189.44 21.4516 189.44 19.9067C189.44 18.2834 189.632 16.9805 190.016 15.998C190.757 14.1469 192.102 13.2213 194.067 13.2213Z" fill="#283480"/>
<path d="M181.772 8.55066C169.512 8.55066 170.238 19.4081 170.238 19.4081V30.4365H175.805V20.0916C175.805 18.3971 176.019 17.1441 176.446 16.3253C177.208 14.88 178.703 14.1538 180.924 14.1538C181.095 14.1538 181.316 14.1609 181.587 14.1752C181.857 14.1894 182.163 14.2108 182.519 14.2535V8.59338C182.27 8.57914 182.113 8.57202 182.042 8.5649C181.957 8.55066 181.871 8.55066 181.772 8.55066Z" fill="#283480"/>
<path d="M161.332 24.6696C161.097 25.0042 160.847 25.289 160.57 25.5097C159.787 26.1576 158.719 26.3569 157.458 26.3569C156.269 26.3569 155.337 26.1789 154.497 25.6449C153.108 24.7906 152.325 23.3453 152.247 21.2308H167.64C167.661 19.4081 167.604 18.0056 167.454 17.0373C167.198 15.3784 166.636 13.9189 165.774 12.6658C164.813 11.2419 163.596 10.2024 162.122 9.54029C160.648 8.88528 158.996 8.55066 157.152 8.55066C154.055 8.55066 151.535 9.52605 149.591 11.4768C147.648 13.4347 146.679 16.2399 146.679 19.8994C146.679 23.8081 147.754 26.6275 149.905 28.3647C152.055 30.0947 154.539 30.9633 157.352 30.9633C160.762 30.9633 163.411 29.9381 165.304 27.8805C166.322 26.7983 166.963 25.7304 167.234 24.6696H161.332ZM153.849 14.3105C154.632 13.5059 155.728 13.1001 157.145 13.1001C158.448 13.1001 159.545 13.4775 160.427 14.2393C161.303 15.0011 161.794 16.1117 161.894 17.5784H152.375C152.574 16.2043 153.073 15.115 153.849 14.3105Z" fill="#283480"/>
<path d="M144.443 30.4294H139.36V17.6282C139.36 16.4606 138.975 13.6768 135.622 13.6768C133.387 13.6768 131.77 15.2859 131.77 17.6282V30.4294H126.68V17.6282C126.68 16.4606 126.331 13.6768 122.985 13.6768C120.714 13.6768 119.133 15.2859 119.133 17.6282V30.4294H114.05V17.7564C114.05 12.4736 117.552 8.47949 122.992 8.47949C125.69 8.47949 127.883 9.61152 129.314 11.427C130.816 9.61152 133.052 8.47949 135.629 8.47949C141.175 8.47949 144.45 12.3099 144.45 17.7564L144.443 30.4294Z" fill="#283480"/>
<path d="M246.674 1.86536C246.674 1.86536 241.071 1.26731 241.071 5.76693L241.064 11.7261C240.445 10.7293 239.64 9.95329 238.643 9.39084C237.654 8.82838 236.515 8.5436 235.226 8.5436C232.449 8.5436 230.228 9.57595 228.569 11.6478C226.903 13.7196 226.077 16.7027 226.077 20.3053C226.077 23.4308 226.917 26.001 228.605 27.9945C230.292 29.988 233.603 30.8637 236.536 30.8637C246.781 30.8637 246.66 22.0781 246.66 22.0781L246.674 1.86536ZM239.996 24.5984C239.184 25.766 237.988 26.3427 236.429 26.3427C234.863 26.3427 233.695 25.7589 232.926 24.5842C232.157 23.4094 231.773 21.7078 231.773 19.7571C231.773 17.9487 232.15 16.4322 232.905 15.2076C233.66 13.9901 234.841 13.3707 236.465 13.3707C237.526 13.3707 238.458 13.7053 239.256 14.3817C240.559 15.4924 241.214 17.493 241.214 20.0703C241.221 21.9285 240.815 23.4308 239.996 24.5984Z" fill="#283480"/>
<path d="M117.048 65.5863C117.048 66.341 116.777 66.9889 116.229 67.5229C115.688 68.064 115.033 68.3274 114.264 68.3274H111.487V48.9904C111.487 45.2312 112.755 42.8746 114.841 41.2869C116.222 40.2332 118.272 39.2294 122.117 39.2294C124.716 39.2294 127.756 40.2404 129.4 42.241C131.244 44.4979 132.013 47.004 132.013 50.2862C132.013 53.6751 131.195 56.4162 129.564 58.5165C127.927 60.567 125.826 61.5851 123.263 61.5851C121.903 61.5851 120.7 61.343 119.668 60.8589C118.571 60.3178 117.703 59.4848 117.048 58.3528V65.5863ZM126.375 50.5354C126.375 48.4351 125.969 46.826 125.143 45.694C124.324 44.5691 123.156 43.9995 121.626 43.9995C120.152 43.9995 119.013 44.5691 118.187 45.694C117.425 46.7192 117.048 48.3354 117.048 50.5354C117.048 52.5858 117.454 54.1166 118.272 55.1347C119.091 56.2667 120.259 56.8292 121.789 56.8292C123.206 56.8292 124.324 56.2667 125.143 55.1347C125.969 54.0027 126.375 52.479 126.375 50.5354Z" fill="#283480"/>
<path d="M168.885 59.8052V58.4382C167.924 59.9476 166.621 60.8803 164.991 61.2576C163.353 61.6278 161.737 61.4997 160.135 60.8518C158.526 60.211 157.145 59.0149 155.992 57.2635C154.845 55.5121 154.269 53.2124 154.269 50.3645C154.269 47.0325 155.03 44.3342 156.554 42.2624C158.085 40.1906 160.534 39.2508 163.909 39.1582C167.234 39.0728 169.163 39.8203 171.057 41.2585C173.129 42.8319 174.346 45.2384 174.346 48.9976V60.3748C174.353 63.9916 171.833 70.7054 163.902 70.1358C158.989 69.7798 156.262 67.765 154.746 63.2013H160.612C161.039 63.9488 161.694 64.5327 162.584 64.9314C163.46 65.3372 164.35 65.444 165.233 65.2589C166.116 65.0737 166.92 64.5469 167.646 63.6854C168.358 62.8239 168.771 61.5282 168.885 59.8052ZM159.722 50.5354C159.722 54.2447 160.797 56.3023 162.94 56.7081C165.076 57.1068 166.664 56.6085 167.682 55.213C168.166 54.6221 168.508 53.6965 168.729 52.4364C168.942 51.1762 168.957 49.9231 168.771 48.6843C168.586 47.4455 168.145 46.3419 167.447 45.3737C166.757 44.4054 165.731 43.9212 164.393 43.9212C162.57 43.9212 161.346 44.5976 160.698 45.9361C160.043 47.2817 159.722 48.8125 159.722 50.5354Z" fill="#283480"/>
<path d="M149.505 40.6962C147.697 39.7777 145.625 39.3149 143.297 39.3149C139.716 39.3149 137.188 40.2476 135.714 42.113C134.789 43.3091 134.269 44.8327 134.148 46.6838H139.502C139.63 45.865 139.894 45.2171 140.292 44.7401C140.848 44.0922 141.78 43.7647 143.105 43.7647C144.294 43.7647 145.191 43.9285 145.796 44.2631C146.408 44.5906 146.714 45.1958 146.714 46.0644C146.714 46.7763 146.316 47.3032 145.518 47.6378C145.077 47.83 144.336 47.9938 143.304 48.122L141.41 48.3569C139.253 48.6274 137.615 49.0831 136.512 49.7239C134.483 50.8915 133.472 52.7782 133.472 55.384C133.472 57.3917 134.098 58.9438 135.358 60.0402C136.611 61.1367 138.213 61.5995 140.143 61.6849C152.239 62.226 152.104 55.3057 152.218 53.8675V45.9077C152.218 43.3589 151.314 41.6217 149.505 40.6962ZM146.693 52.7782C146.657 54.6364 146.123 55.9109 145.105 56.6086C144.087 57.3063 142.969 57.6552 141.759 57.6552C140.99 57.6552 140.342 57.4416 139.815 57.0215C139.281 56.6015 139.011 55.918 139.011 54.9711C139.011 53.9102 139.445 53.1271 140.321 52.6216C140.841 52.3225 141.688 52.0662 142.87 51.8669L144.13 51.6319C144.763 51.5109 145.255 51.3899 145.611 51.2475C145.981 51.1122 146.33 50.9413 146.686 50.7135V52.7782H146.693Z" fill="#283480"/>
<path d="M195.391 42.4547C193.604 40.2192 190.899 39.1014 187.261 39.1014C183.637 39.1014 180.924 40.2192 179.137 42.4547C177.35 44.6903 176.46 47.3246 176.46 50.3789C176.46 53.476 177.35 56.1316 179.137 58.3316C180.924 60.5315 183.63 61.6351 187.261 61.6351C190.892 61.6351 193.604 60.5315 195.391 58.3316C197.171 56.1245 198.061 53.476 198.061 50.3789C198.061 47.3246 197.179 44.6832 195.391 42.4547ZM190.97 55.2701C190.109 56.4235 188.863 56.9931 187.247 56.9931C185.63 56.9931 184.385 56.4164 183.516 55.2701C182.64 54.1238 182.206 52.4863 182.206 50.3718C182.206 48.2573 182.64 46.6269 183.516 45.4877C184.385 44.3414 185.63 43.7719 187.247 43.7719C188.863 43.7719 190.102 44.3414 190.97 45.4877C191.839 46.6269 192.266 48.2573 192.266 50.3718C192.266 52.4935 191.839 54.1238 190.97 55.2701Z" fill="#283480"/>
</svg>
