<?xml version="1.0" encoding="utf-8"?>
<!-- Generator: Adobe Illustrator 25.3.0, SVG Export Plug-In . SVG Version: 6.00 Build 0)  -->
<svg version="1.1" id="Capa_1" xmlns="http://www.w3.org/2000/svg" xmlns:xlink="http://www.w3.org/1999/xlink" x="0px" y="0px"
	 viewBox="0 0 158 162" style="enable-background:new 0 0 158 162;" xml:space="preserve">
<style type="text/css">
	.st0{fill-rule:evenodd;clip-rule:evenodd;fill:#FFFFFF;}
</style>
<path class="st0" d="M79.9,8.7c38.8,0,69.8,32.7,69.8,72.3s-31,72.3-69.8,72.3c-11.1,0-21.9-2.8-31.3-7.5c-0.6-0.3-1.1-0.3-1.4-0.3
	l-13.9,3.9c-12.5,3.3-22.7-8.3-19.7-20l3.6-14.4c0-0.6,0-1.1-0.3-1.9c-4.7-9.7-7.2-20.5-7.2-32.2C9.8,41.1,40.8,8.7,79.9,8.7z
	 M133.7,80.7c0-31.3-24.4-56.3-54-56.3c-29.4,0-54,24.9-54,56.3c0,9.1,1.9,17.7,5.5,25.2c1.9,3.9,2.5,8.3,1.4,12.7l-3.6,14.4v0.3
	l0,0v0.3l13.6-3.9c4.7-1.4,9.1-0.6,13,1.4c7.2,3.6,15.2,5.8,23.8,5.8C109.3,137,133.7,112,133.7,80.7z"/>
</svg>
